# xmcd
#
# Track frame offsets: 
#        150
#        12232
#        24322
#        44576
#        57669
#        72746
#        85842
#        99342
#        114229
#        132117
#
# Disc length: 1963 seconds
#
# Revision: 0
# Processed by: cddbd v1.5.2PL0 Copyright (c) Steve Scherf et al.
# Submitted via: ExactAudioCopy v0.95b4
#
DISCID=8207a90a
DTITLE=Wilson Family Band, The - Mercy Road
DYEAR=2007
DGENRE=Bluegrass
TTITLE0=01 Sweet By and By
TTITLE1=02 Mercy Road
TTITLE2=03 House of Gold
TTITLE3=04 Rise and Shine
TTITLE4=05 Pass Me Not
TTITLE5=06 With His Word
TTITLE6=07 When the Wagon Was New
TTITLE7=08 Count Your Blessings
TTITLE8=09 Walk Me Back In Time
TTITLE9=10 Joshua - Salt Creek
EXTD=
EXTT0=
EXTT1=
EXTT2=
EXTT3=
EXTT4=
EXTT5=
EXTT6=
EXTT7=
EXTT8=
EXTT9=
PLAYORDER=
